<?xml version="1.0" encoding="UTF-8" standalone="no"?>
<!-- Generator: Adobe Illustrator 19.0.0, SVG Export Plug-In . SVG Version: 6.00 Build 0)  -->

<svg
   version="1.1"
   id="Layer_1"
   x="0px"
   y="0px"
   viewBox="0 0 512 512"
   style="enable-background:new 0 0 512 512;"
   xml:space="preserve"
   sodipodi:docname="library-book-svgrepo-com.svg"
   inkscape:version="1.2.1 (9c6d41e410, 2022-07-14)"
   xmlns:inkscape="http://www.inkscape.org/namespaces/inkscape"
   xmlns:sodipodi="http://sodipodi.sourceforge.net/DTD/sodipodi-0.dtd"
   xmlns="http://www.w3.org/2000/svg"
   xmlns:svg="http://www.w3.org/2000/svg"><defs
   id="defs41">
	
</defs><sodipodi:namedview
   id="namedview39"
   pagecolor="#ffffff"
   bordercolor="#000000"
   borderopacity="0.25"
   inkscape:showpageshadow="2"
   inkscape:pageopacity="0.0"
   inkscape:pagecheckerboard="0"
   inkscape:deskcolor="#d1d1d1"
   showgrid="false"
   inkscape:zoom="1.6191406"
   inkscape:cx="137.10977"
   inkscape:cy="256.30881"
   inkscape:window-width="1920"
   inkscape:window-height="1009"
   inkscape:window-x="-8"
   inkscape:window-y="-8"
   inkscape:window-maximized="1"
   inkscape:current-layer="Layer_1" />
<g
   id="g4"
   transform="translate(-4.9408929,-9.2641737)"
   style="fill:#ffffff;fill-opacity:1;stroke:#ffffff;stroke-opacity:1">
		<path
   d="m 490.667,369.47 h -7.172 c -0.031,-1.704 -0.264,-3.43 -0.725,-5.151 L 398.994,51.68 C 395.944,40.299 384.246,33.545 372.865,36.596 L 294.7,57.545 c -11.38,3.05 -18.133,14.748 -15.084,26.128 l 8.054,30.056 c -1.75,-0.167 -3.52,-0.269 -5.316,-0.269 H 64.006 c -16.075,0 -26.375,17.105 -18.855,31.313 l 8.683,16.405 c 5.251,9.926 5.251,22.638 -0.002,32.567 l -2.672,5.048 h -8.487 c -16.075,0 -26.375,17.105 -18.855,31.313 l 8.683,16.405 c 5.251,9.926 5.251,22.638 -0.002,32.567 l -8.681,16.402 c -7.52,14.208 2.78,31.313 18.855,31.313 h 8.487 l 2.673,5.051 c 5.251,9.926 5.251,22.638 -0.002,32.567 l -2.677,5.059 H 21.333 C 9.551,369.47 0,379.022 0,390.804 v 64 c 0,11.782 9.551,21.333 21.333,21.333 h 469.333 c 11.782,0 21.333,-9.551 21.333,-21.333 v -64 C 512,379.022 502.449,369.47 490.667,369.47 Z M 363.303,83.331 436.036,354.758 399.083,364.662 326.35,93.235 Z M 76.167,241.46 H 261.02 c 8.385,0 16.32,8.991 16.32,21.333 0,12.342 -7.935,21.333 -16.32,21.333 H 76.167 c 3.917,-13.891 3.917,-28.776 0,-42.666 z M 97.5,156.126 h 184.853 c 8.385,0 16.32,8.991 16.32,21.333 0,12.342 -7.935,21.333 -16.32,21.333 H 261.02 97.5 c 3.917,-13.89 3.917,-28.776 0,-42.666 z m 163.52,170.667 h 21.333 c 8.385,0 16.32,8.991 16.32,21.333 0,12.342 -7.935,21.333 -16.32,21.333 H 97.5 c 3.917,-13.891 3.917,-28.777 0,-42.667 h 163.52 z m 51.867,-33.487 c 4.552,-9.121 7.12,-19.536 7.12,-30.513 0,-10.976 -2.568,-21.392 -7.12,-30.513 1.896,-1.245 3.717,-2.604 5.461,-4.064 l 37.851,141.254 h -18.23 c 2.182,-6.705 3.371,-13.894 3.371,-21.344 0,-22.987 -11.248,-43.522 -28.453,-54.82 z M 469.333,433.47 H 42.667 v -21.333 h 426.667 v 21.333 z"
   id="path2"
   style="fill:#ffffff;fill-opacity:1;stroke:#ffffff;stroke-opacity:1" />
	</g>
<g
   id="g8">
</g>
<g
   id="g10">
</g>
<g
   id="g12">
</g>
<g
   id="g14">
</g>
<g
   id="g16">
</g>
<g
   id="g18">
</g>
<g
   id="g20">
</g>
<g
   id="g22">
</g>
<g
   id="g24">
</g>
<g
   id="g26">
</g>
<g
   id="g28">
</g>
<g
   id="g30">
</g>
<g
   id="g32">
</g>
<g
   id="g34">
</g>
<g
   id="g36">
</g>
</svg>
